<?xml version="1.0"?>
<svg xmlns="http://www.w3.org/2000/svg" xmlns:xlink="http://www.w3.org/1999/xlink" version="1.1" viewBox="0 0 224 224" width="48px" height="48px"><g fill="none" fill-rule="nonzero" stroke="none" stroke-width="1" stroke-linecap="butt" stroke-linejoin="miter" stroke-miterlimit="10" stroke-dasharray="" stroke-dashoffset="0" font-family="none" font-weight="none" font-size="none" text-anchor="none" style="mix-blend-mode: normal"><path d="M0,224v-224h224v224z" fill="#102a43"/><g id="Layer_1"><g id="surface1_117_"><path d="M191.33333,112c0,43.86667 -35.46667,79.33333 -79.33333,79.33333c-43.86667,0 -79.33333,-35.46667 -79.33333,-79.33333c0,-43.86667 35.46667,-79.33333 79.33333,-79.33333c43.86667,0 79.33333,35.46667 79.33333,79.33333z" fill="#102a43"/><path d="M98,191.33333v-25.66667c0,-1.4 0.93333,-2.33333 2.33333,-2.33333c1.4,0 2.33333,0.93333 2.33333,2.33333v25.66667h9.33333v-30.33333c0,-1.4 0.93333,-2.33333 2.33333,-2.33333c1.4,0 2.33333,0.93333 2.33333,2.33333v30.33333h9.33333v-25.66667c0,-1.4 0.93333,-2.33333 2.33333,-2.33333c1.4,0 2.33333,0.93333 2.33333,2.33333v25.66667h8.4c0.93333,-1.4 0.93333,-2.8 0.93333,-5.13333v-18.2c0,-10.26667 -8.86667,-24.26667 -20.06667,-24.26667h-11.66667c-10.73333,0 -20.06667,14.46667 -20.06667,24.26667v18.2c0,1.86667 0.46667,3.73333 0.93333,5.13333h8.86667z" fill="#d9e2ec"/><path d="M187.13333,123.2v0c0,0 -6.06667,-1.86667 -11.2,-1.86667h-0.46667c-5.13333,0 -13.53333,1.4 -13.53333,1.4c-0.46667,0 -0.46667,0 -0.46667,-0.46667c0,-0.46667 0,-0.46667 0.46667,-0.46667c0.46667,0 9.33333,-1.4 14.46667,-1.4c5.13333,0 11.2,1.86667 11.66667,1.86667c0.46667,0 0.46667,0.46667 0.46667,0.93333c-0.93333,-0.46667 -0.93333,0 -1.4,0z" fill="#d9e2ec"/><path d="M185.73333,126.93333v0c0,0 -6.53333,-1.86667 -12.13333,-1.86667c-4.2,0 -14,0.93333 -14.46667,0.93333c-0.46667,0 -0.46667,0 -0.46667,-0.46667c0,-0.46667 0,-0.46667 0.46667,-0.46667c0.46667,0 10.26667,-0.93333 14.46667,-0.93333c6.06667,0 12.13333,1.86667 12.13333,1.86667c0.46667,0 0.46667,0.46667 0.46667,0.93333c0,-0.46667 0,0 -0.46667,0z" fill="#d9e2ec"/><path d="M36.4,123.2c-0.46667,0 -0.46667,0 -0.46667,-0.46667c0,-0.46667 0,-0.46667 0.46667,-0.93333c3.73333,-0.93333 11.2,-2.33333 15.4,-2.33333c3.73333,0 16.33333,0.93333 16.8,0.93333c0.46667,0 0.46667,0.46667 0.46667,0.46667c0,0.46667 -0.46667,0.46667 -0.46667,0.46667c0,0 -12.6,-0.93333 -16.33333,-0.93333c-5.13333,0.93333 -12.13333,1.86667 -15.86667,2.8z" fill="#d9e2ec"/><path d="M38.26667,130.2c0,0 -0.46667,0 -0.46667,-0.46667c0,-0.46667 0,-0.46667 0,-0.93333c0.46667,0 6.53333,-3.73333 13.53333,-4.66667c6.06667,-0.93333 18.66667,0.46667 19.6,0.46667c0.46667,0 0.46667,0.46667 0.46667,0.46667c0,0.46667 -0.46667,0.46667 -0.46667,0.46667v0c0,0 -13.06667,-1.4 -19.13333,-0.46667c-7,1.4 -13.53333,5.13333 -13.53333,5.13333z" fill="#d9e2ec"/><path d="M66.26667,109.66667c0,-20.53333 21.46667,-39.66667 48.06667,-39.66667c26.6,0 48.06667,18.66667 48.06667,39.66667c0,21 -15.4,35 -48.06667,35c-32.66667,0 -48.06667,-14.46667 -48.06667,-35z" fill="#d9e2ec"/><path d="M133.46667,76.06667c0,0 7.93333,-10.73333 22.4,-10.73333c5.6,5.6 1.86667,22.4 0,27.06667z" fill="#d9e2ec"/><path d="M95.2,76.06667c0,0 -7.93333,-10.73333 -22.4,-10.73333c-5.6,5.6 -1.86667,22.4 0,27.06667z" fill="#d9e2ec"/><path d="M93.8,167.53333c0,0 -10.73333,0 -13.06667,0c-5.6,0 -10.73333,-2.33333 -13.06667,-7c-2.8,-5.13333 -5.13333,-10.73333 -12.13333,-15.4c-1.4,-0.93333 -0.46667,-1.86667 1.86667,-1.86667c2.33333,0.46667 6.53333,0.93333 9.8,5.13333c3.26667,4.2 7,9.33333 13.06667,9.33333c6.06667,0 12.6,0 16.33333,-4.2z" fill="#d9e2ec"/><path d="M112,18.66667c-51.33333,0 -93.33333,42 -93.33333,93.33333c0,51.33333 42,93.33333 93.33333,93.33333c51.33333,0 93.33333,-42 93.33333,-93.33333c0,-51.33333 -42,-93.33333 -93.33333,-93.33333zM112,186.66667c-41.06667,0 -74.66667,-33.6 -74.66667,-74.66667c0,-41.06667 33.6,-74.66667 74.66667,-74.66667c41.06667,0 74.66667,33.6 74.66667,74.66667c0,41.06667 -33.6,74.66667 -74.66667,74.66667z" fill="#00bcd4"/></g></g></g></svg>
